<svg xmlns="http://www.w3.org/2000/svg" viewBox="0 0 129.804 81.26"><path fill="#fef9c3" fill-rule="evenodd" stroke="#f3f9c3" stroke-linecap="round" stroke-width=".25mm" d="M49.231 62.286a1.002 1.002 0 0 0-.23.049 1.062 1.062 0 0 0-.046.016.821.821 0 0 0-.479.459q-.25.45-.45.85a14.857 14.857 0 0 1 .014-.427q.124-2.718 1.256-10.951a711.013 711.013 0 0 1 .63-4.472q.713-4.8 1.158-7.983a389.633 389.633 0 0 0 .267-1.942 159.156 159.156 0 0 0 .297-2.343q.327-2.729.653-6.132.43-4.479.43-7.238a32.06 32.06 0 0 0-.005-.562 25.625 25.625 0 0 0-.066-1.314q-.229-2.947-1.138-4.641a3.96 3.96 0 0 0-3.046-2.245 4.176 4.176 0 0 0-.461-.026q-1.498 0-3.278 1.034a13.981 13.981 0 0 0-1.436.967 20.502 20.502 0 0 0-2.1 1.861q-1.046 1.051-2.146 2.392a51.966 51.966 0 0 0-2.079 2.722q-3.4 4.75-6.95 11.4-1.996 3.74-4.049 8.264a213.768 213.768 0 0 0-3.226 7.511 228.522 228.522 0 0 0-2.286 5.832 268.085 268.085 0 0 0-4.739 13.743q1.725-8.7 4.561-21.689a2436.772 2436.772 0 0 1 2.014-9.136 6808.66 6808.66 0 0 1 .155-.694q3.1-13.937 5.063-22.477a1096.552 1096.552 0 0 1 1.207-5.204q1.282-5.41.308-7.831A3.018 3.018 0 0 0 27.876.61a2.792 2.792 0 0 0-.391-.211Q25.1-.65 20.676 2.76a34.13 34.13 0 0 0-1.669 1.404q-1.415 1.267-2.911 2.854a70.9 70.9 0 0 0-2.945 3.342q-4.025 4.85-7.175 10.25-.85 1.35-1.575 2.775-.368.723-.768 1.544a144.865 144.865 0 0 0-.807 1.681q-.85 1.8-1.45 3.6t-1 3.625a17.324 17.324 0 0 0-.056.268Q0 35.681 0 37.204a14.429 14.429 0 0 0 .001.206 12.609 12.609 0 0 0 .097 1.414 9.654 9.654 0 0 0 .378 1.736q1.316 3.872 5.714 4.918a15.412 15.412 0 0 0 3.236.382 1.154 1.154 0 0 0 .013 0 .916.916 0 0 0 .662-.275q.275-.275.275-.675t-.275-.7a1.096 1.096 0 0 0-.028-.03.876.876 0 0 0-.647-.27 15.359 15.359 0 0 1-1.3-.075q-1.337-.138-2.385-.516a5.262 5.262 0 0 1-3.415-3.359 7.25 7.25 0 0 1-.274-1.131q-.45-2.767.824-6.919a41.601 41.601 0 0 1 1.411-3.881 50.257 50.257 0 0 1 3.214-6.319q3.075-5.15 6.975-9.925a68.446 68.446 0 0 1 1.717-2.024q1.415-1.6 2.774-2.915a34.667 34.667 0 0 1 2.909-2.536q1.9-1.5 3.175-1.95 1.005-.355 1.559-.244a.936.936 0 0 1 .266.094q.25.2.475.675a.777.777 0 0 1 .017.037q.207.504.158 2.188a14.56 14.56 0 0 1-.082 1.157q-.152 1.393-.568 3.193a1095.234 1095.234 0 0 0-1.698 7.234q-1.982 8.568-4.47 19.822a3632.466 3632.466 0 0 0-2.532 11.544q-3.05 14-4.6 22.1a499.151 499.151 0 0 0-.394 2.082q-.599 3.204-.906 5.118-.3 1.8-.225 2.7.024.281.103.494a.937.937 0 0 0 .622.606 1.268 1.268 0 0 0 .104.046q.064.025.122.038a.557.557 0 0 0 .124.016.938.938 0 0 0 .55-.175 1.064 1.064 0 0 0 .118-.096q.181-.169.332-.454a16.428 16.428 0 0 0 .118-.225q.055-.107.103-.205a8.44 8.44 0 0 0 .104-.22 2.857 2.857 0 0 0 .005-.01q.093-.206.225-.586a20.615 20.615 0 0 0 .095-.279.074.074 0 0 1 .003-.019q.005-.022.028-.029a.072.072 0 0 1 .019-.002q5.188-18.5 11.333-32.703a150.095 150.095 0 0 1 7.717-15.497q3.232-5.638 6.038-9.172a30.922 30.922 0 0 1 2.462-2.778q3.519-3.473 5.537-3.473a2.162 2.162 0 0 1 .313.023q2.4.3 2.55 6.3a25.381 25.381 0 0 1 .008.247q.052 2.019-.176 5.049a108.743 108.743 0 0 1-.207 2.379q-.296 3.047-.603 5.556a140.37 140.37 0 0 1-.372 2.819q-.5 3.5-1.4 9.85-.712 4.762-1.129 7.837a218.719 218.719 0 0 0-.246 1.863q-.278 2.198-.417 3.901a46.16 46.16 0 0 0-.108 1.649q-.08 1.764.065 2.547a2.005 2.005 0 0 0 .085.328 1.777 1.777 0 0 0 .069.161 1.322 1.322 0 0 0 .831.714q.602.188 1.119-.162a1.933 1.933 0 0 0 .331-.288q.65-.7 1.55-2.4a1.393 1.393 0 0 0 .034-.102q.1-.346-.009-.673a1.117 1.117 0 0 0-.003-.012.914.914 0 0 0-.472-.538q-.241-.121-.495-.099Zm79.52-.026q.375-.05.7.2a.907.907 0 0 1 .245.277.867.867 0 0 1 .105.373q.023.357-.174.675a1.402 1.402 0 0 1-.051.075q-2.65 3.25-5.6 3.25h-.2q-1.05 0-2.1-.425a6.968 6.968 0 0 1-1-.509q-.577-.35-1.175-.841a31.701 31.701 0 0 1-1.056-.907 23.774 23.774 0 0 1-.919-.868 14.996 14.996 0 0 1-.572-.61q-.581-.65-1.31-1.579a53.431 53.431 0 0 1-.243-.311 414.277 414.277 0 0 1-.604-.785q-.858-1.115-1.421-1.865a44.947 44.947 0 0 1-.418-.569q-.686-.945-1.756-2.494a263.041 263.041 0 0 1-.026-.037q-2.1-2.9-3.275-4.5-.789-1.075-1.951-2.489a111.59 111.59 0 0 0-1.224-1.461 44.284 44.284 0 0 0-1.711-1.903q-.807-.844-1.578-1.546a25.176 25.176 0 0 0-.511-.451q-3.05.75-6 .7a1563.044 1563.044 0 0 0-2.106 8.716q-4.172 17.499-4.944 22.984a53.17 53.17 0 0 1 .141-.326q.073-.166.154-.35a91.028 91.028 0 0 1 .055-.124.908.908 0 0 1 .502-.49 1.193 1.193 0 0 1 .023-.01.952.952 0 0 1 .26-.065q.204-.021.408.055a1.104 1.104 0 0 1 .082.035.976.976 0 0 1 .303.214.897.897 0 0 1 .197.336q.125.375-.025.725a42.107 42.107 0 0 1-.242.547q-.351.778-.633 1.303a22.486 22.486 0 0 1-.368.662 16.731 16.731 0 0 1-.357.588q-.35.55-.675.8a1.305 1.305 0 0 1-.278.166.993.993 0 0 1-.397.084.851.851 0 0 1-.306-.059 1.045 1.045 0 0 1-.094-.041 1.261 1.261 0 0 1-.34-.171 1.026 1.026 0 0 1-.31-.354 1.073 1.073 0 0 1-.085-.232q-.115-.44-.115-1.368 0-1.019.277-2.781a45.831 45.831 0 0 1 .123-.744 103.889 103.889 0 0 1 .227-1.253q.38-2.035.998-4.997a309.742 309.742 0 0 1 .446-2.094q.694-3.212 1.665-7.425a843.287 843.287 0 0 1 .064-.281 758.279 758.279 0 0 1 1.111-4.739q.504-2.121 1.077-4.487a1526.418 1526.418 0 0 1 1.212-4.974 13.272 13.272 0 0 1-1.629-.289q-.841-.208-1.528-.52a6.29 6.29 0 0 1-.893-.491 6.131 6.131 0 0 1-.901-.723q-.736-.724-.999-1.577a3.302 3.302 0 0 1-.132-.51q-.192-1.116.564-1.96a3.412 3.412 0 0 1 .468-.43 3.986 3.986 0 0 1 1.746-.777q1.944-.376 4.904.677.65-2.55 1.25-5.15a5079.019 5079.019 0 0 0 1.731-7.063q2.16-8.845 3.193-13.254a287.899 287.899 0 0 0 .526-2.283q.1-.4.425-.625a.837.837 0 0 1 .486-.156q.116 0 .239.031a1.048 1.048 0 0 1 .322.137.906.906 0 0 1 .278.288q.2.325.15.725-.939 4.207-3.98 16.655a4734.167 4734.167 0 0 1-1.47 5.995q-.932 3.633-1.335 5.434a56.043 56.043 0 0 0-.015.066 37.286 37.286 0 0 1 2.065 1.074 41.99 41.99 0 0 1 .485.276q1.2.75 2.45 1.75a29.327 29.327 0 0 0 7.028-3.062 37.247 37.247 0 0 0 3.722-2.538 33.669 33.669 0 0 0 5.794-5.779 44.23 44.23 0 0 0 3.456-5.071q3.2-5.4 3.95-10.35a19.136 19.136 0 0 0 .178-1.612q.13-1.988-.226-3.637a8.922 8.922 0 0 0-1.102-2.801q-2.772-4.378-10.418-3.977a26.696 26.696 0 0 0-.432.027 30.872 30.872 0 0 0-5.093.771 38.597 38.597 0 0 0-3.207.904q-4.35 1.425-8.125 3.575-3.775 2.15-6.9 4.95a28.164 28.164 0 0 0-2.529 2.558q-1.217 1.41-2.072 2.845a16.973 16.973 0 0 0-.174.297 14.776 14.776 0 0 0-1.201 2.647q-1.389 4.16.551 8.003a.98.98 0 0 1 .082.389q0 .165-.057.336a.914.914 0 0 1-.464.544 1.09 1.09 0 0 1-.011.006.952.952 0 0 1-.296.093q-.186.026-.38-.028a1.098 1.098 0 0 1-.049-.015q-.375-.125-.575-.475-2.365-4.732-.564-9.743a17.012 17.012 0 0 1 1.264-2.707 23.364 23.364 0 0 1 3.12-4.212q1.603-1.742 3.672-3.397a39.783 39.783 0 0 1 .433-.341q4.825-3.75 10.8-6.15a41.356 41.356 0 0 1 7.271-2.201 34.698 34.698 0 0 1 4.404-.599 27.343 27.343 0 0 1 1.319-.056q8.082-.139 11.231 4.956a10.845 10.845 0 0 1 1.441 3.868q.349 1.973.129 4.32a21.965 21.965 0 0 1-.095.837q-.725 5.475-4.225 11.375-4.7 8-12.05 13-3.8 2.65-7.85 4a34.52 34.52 0 0 1 1.487 1.49q.738.783 1.516 1.691a59.314 59.314 0 0 1 .522.619 133.625 133.625 0 0 1 .891 1.079q1.266 1.552 2.109 2.696 1.125 1.525 3.075 4.275a830.958 830.958 0 0 1 .75 1.033q1.05 1.448 1.65 2.292.783 1.1 2.139 2.774a111.096 111.096 0 0 0 .061.076q1.4 1.725 2.325 2.575a12.05 12.05 0 0 0 1.933 1.44 13.331 13.331 0 0 0 .142.085 6.661 6.661 0 0 0 .801.404q.691.289 1.299.321a3.269 3.269 0 0 0 .078.001q2.063 0 4.222-2.601.25-.3.625-.35ZM77.942 42.909a1.628 1.628 0 0 0-.216-.799 2.02 2.02 0 0 0-.037-.064q-.712-1.169-2.563-.536a1.301 1.301 0 0 0-.084.035.989.989 0 0 0-.491.465.99.99 0 0 0-.018.038q-.103.231-.066.473a.973.973 0 0 0 .059.214q.15.375.5.55a.985.985 0 0 0 .089.039q.306.117.611-.014a.742.742 0 0 0 .053-.002q.066-.005.106-.022a.127.127 0 0 0 .041-.026 3.73 3.73 0 0 1-.297.593q-.68 1.119-2.403 2.607a18.904 18.904 0 0 1-1.073.821 24.023 24.023 0 0 1-1.577 1.029 27.999 27.999 0 0 1-1.224-4.511 35.94 35.94 0 0 1-.576-5.639 60.05 60.05 0 0 0 .335-.404q2.312-2.819 3.632-5.146a17.468 17.468 0 0 0 1.108-2.3q.984-2.545.733-4.108a3.012 3.012 0 0 0-.258-.842q-.75-1.5-2.4-1.25a3.04 3.04 0 0 0-1.108.402q-.83.485-1.642 1.523-1.35 1.725-1.85 4.625a34.22 34.22 0 0 0-.118.748q-.426 2.908-.382 6.052a64.923 64.923 0 0 1-1.715 1.934 80.888 80.888 0 0 1-2.835 2.916q-5.503 5.354-5.503 8.276a2.471 2.471 0 0 0 .653 1.724 2.768 2.768 0 0 0 .916.625q.813.355 2.034.4 1.074.039 2.237-.121a17.118 17.118 0 0 0 2.188-.454 25.975 25.975 0 0 0 .911-.267 29.049 29.049 0 0 0 3.864-1.533 26.059 26.059 0 0 0 .753 1.508 21.908 21.908 0 0 0 1.897 2.942 1.193 1.193 0 0 0 .048.052.939.939 0 0 0 .702.298q.35 0 .6-.2.35-.25.375-.65a1.152 1.152 0 0 0 .003-.072.953.953 0 0 0-.228-.628 18.548 18.548 0 0 1-.84-1.174 21.567 21.567 0 0 1-1.61-2.926q1.069-.619 1.948-1.238a17.818 17.818 0 0 0 1.252-.962 20.584 20.584 0 0 0 1.244-1.152q.554-.561.974-1.092a8.187 8.187 0 0 0 .732-1.081 5.385 5.385 0 0 0 .259-.525q.267-.632.257-1.151ZM58.876 51.01q.8.85 3.8.3a22.244 22.244 0 0 0 3.731-1.042 28.155 28.155 0 0 0 2.469-1.058 32.334 32.334 0 0 1-1.542-6.016 38.967 38.967 0 0 1-.358-2.984 100.846 100.846 0 0 1-2.357 2.495 117.243 117.243 0 0 1-.993 1.005 34.773 34.773 0 0 0-1.29 1.259 25.241 25.241 0 0 0-1.11 1.216 32.136 32.136 0 0 0-.576.695q-.541.674-.877 1.183a8.745 8.745 0 0 0-.047.072q-.5.775-.775 1.425-.261.618-.229.897a.438.438 0 0 0 .004.028q.05.275.15.525Zm10.35-20q-.3 1.85-.4 4a37.688 37.688 0 0 0 1.244-1.757 28.546 28.546 0 0 0 1.031-1.668 25.411 25.411 0 0 0 .495-.908q.52-1.007.73-1.692a12.85 12.85 0 0 0 .225-.82q.101-.426.156-.813a7.598 7.598 0 0 0 .019-.142 4.183 4.183 0 0 0 .018-.165q.056-.657-.168-.835a.573.573 0 0 0-.052-.088q-.033-.043-.069-.069a.213.213 0 0 0-.129-.043h-.1a1.511 1.511 0 0 0-.535.225q-.56.359-1.165 1.25-.731 1.077-1.132 2.732a13.991 13.991 0 0 0-.168.793Zm19.6 8.35a1.585 1.585 0 0 0 .24.472q.127.177.309.346a3.178 3.178 0 0 0 .151.132q.55.45 1.575.825a9.005 9.005 0 0 0 1.231.348 11.855 11.855 0 0 0 1.094.177l.7-2.8q-2.05-.8-3.4-.8a3.973 3.973 0 0 0-.64.048q-.606.099-1.01.402-.4.35-.25.85Zm6.55 2.35q1.75 0 3.55-.35-.5-.35-1-.65-.95-.55-2.05-1.1-.336 1.396-.488 2.05a63.264 63.264 0 0 0-.012.05Z" font-size="12" vector-effect="non-scaling-stroke"/></svg>